<?xml version="1.0" encoding="UTF-8" standalone="no"?>
<!DOCTYPE svg PUBLIC "-//W3C//DTD SVG 1.1//EN" "http://www.w3.org/Graphics/SVG/1.1/DTD/svg11.dtd">
<svg width="100%" height="100%" viewBox="0 0 162 50" version="1.1" xmlns="http://www.w3.org/2000/svg" xmlns:xlink="http://www.w3.org/1999/xlink" xml:space="preserve" xmlns:serif="http://www.serif.com/" style="fill-rule:evenodd;clip-rule:evenodd;stroke-linejoin:round;stroke-miterlimit:2;">
    <g transform="matrix(1,0,0,1,-18.4512,-11.0788)">
        <g id="Ebene-1" serif:id="Ebene 1">
            <g transform="matrix(2.33482,0,0,1.05614,-19.046,-2.48299)">
                <path d="M85.239,36.512C85.239,23.513 80.735,12.959 75.188,12.959L26.112,12.959C20.564,12.959 16.06,23.513 16.06,36.512C16.06,49.511 20.564,60.065 26.112,60.065L75.188,60.065C80.735,60.065 85.239,49.511 85.239,36.512Z" style="fill:rgb(0,2,60);"/>
            </g>
            <g transform="matrix(1,0,0,1,107.231,40.0341)">
                <path d="M0,-4.379C-0.05,-4.668 -0.209,-4.92 -0.445,-5.087C-0.686,-5.258 -0.976,-5.324 -1.264,-5.275C-1.551,-5.226 -1.802,-5.068 -1.973,-4.829C-3.612,-2.52 -6.279,-1.14 -9.105,-1.139C-11.94,-1.147 -14.61,-2.524 -16.247,-4.823C-16.599,-5.314 -17.282,-5.43 -17.774,-5.079C-18.266,-4.728 -18.381,-4.044 -18.031,-3.552C-15.986,-0.679 -12.663,1.042 -9.14,1.051L-9.107,1.051C-5.572,1.05 -2.237,-0.675 -0.186,-3.563C-0.019,-3.801 0.048,-4.09 0,-4.379" style="fill:rgb(247,247,247);fill-rule:nonzero;"/>
            </g>
            <g transform="matrix(1,0,0,1,139.161,28.0651)">
                <path d="M0,4.152C-0.296,3.468 -0.708,2.88 -1.224,2.403C-1.622,2.038 -2.079,1.74 -2.59,1.514C-2.57,1.5 -2.552,1.485 -2.533,1.471C-1.872,0.955 -1.365,0.292 -1.025,-0.501C-0.692,-1.277 -0.524,-2.09 -0.524,-2.918C-0.524,-4.505 -1.027,-5.792 -2.021,-6.745C-3.008,-7.69 -4.328,-8.169 -5.942,-8.169L-13.405,-8.169C-13.698,-8.169 -13.963,-8.056 -14.172,-7.846C-14.384,-7.634 -14.495,-7.369 -14.495,-7.078L-14.495,-3.146C-14.496,-3.139 -14.498,-3.131 -14.498,-3.124L-14.498,-0.352C-14.498,-0.068 -14.393,0.193 -14.198,0.397C-13.989,0.619 -13.707,0.737 -13.382,0.737C-13.086,0.737 -12.814,0.627 -12.594,0.414C-12.378,0.202 -12.264,-0.062 -12.264,-0.352L-12.264,-2.11L-12.261,-2.11L-12.261,-5.99L-6.081,-5.99C-4.994,-5.99 -4.159,-5.711 -3.6,-5.16C-3.035,-4.601 -2.76,-3.877 -2.76,-2.945C-2.76,-1.718 -3.077,-0.793 -3.702,-0.198C-4.348,0.414 -5.128,0.72 -6.081,0.737L-6.199,0.737L-8.811,0.72C-9.095,0.72 -9.354,0.824 -9.56,1.016C-9.782,1.222 -9.899,1.501 -9.899,1.822C-9.899,2.114 -9.789,2.382 -9.576,2.6C-9.364,2.813 -9.1,2.926 -8.811,2.926L-6.199,2.943L-5.887,2.943C-5.095,2.943 -4.369,3.075 -3.73,3.336C-3.124,3.583 -2.658,3.958 -2.31,4.482C-1.963,5 -1.788,5.693 -1.788,6.542C-1.788,7.817 -2.153,8.707 -2.903,9.263C-3.694,9.847 -4.698,10.143 -5.887,10.143L-12.261,10.143L-12.261,4.505L-12.264,4.505L-12.264,4.043C-12.264,3.759 -12.368,3.499 -12.563,3.295C-12.771,3.072 -13.055,2.954 -13.38,2.954C-13.676,2.954 -13.946,3.065 -14.167,3.277C-14.384,3.489 -14.498,3.754 -14.498,4.043L-14.498,6.815C-14.498,6.823 -14.496,6.831 -14.495,6.84L-14.495,11.231C-14.495,11.521 -14.384,11.786 -14.171,12C-13.958,12.211 -13.693,12.321 -13.405,12.321L-5.748,12.321C-4.921,12.321 -4.131,12.206 -3.397,11.978C-2.646,11.744 -1.977,11.383 -1.409,10.906C-0.833,10.423 -0.374,9.809 -0.044,9.08C0.281,8.356 0.446,7.502 0.446,6.542C0.446,5.641 0.296,4.837 0,4.152" style="fill:rgb(247,247,247);fill-rule:nonzero;"/>
            </g>
            <g transform="matrix(1,0,0,1,66.0785,19.8946)">
                <path d="M0,8.908C-0.325,8.908 -0.607,8.787 -0.815,8.559C-1.011,8.348 -1.114,8.083 -1.114,7.792L-1.114,2.176L-6.724,2.176C-7.01,2.176 -7.274,2.073 -7.488,1.877C-7.718,1.665 -7.839,1.392 -7.839,1.087C-7.839,0.778 -7.718,0.506 -7.487,0.298C-7.277,0.103 -7.014,0 -6.724,0L6.726,0C7.013,0 7.277,0.103 7.491,0.3C7.719,0.507 7.84,0.779 7.84,1.087C7.84,1.511 7.64,1.766 7.472,1.907C7.26,2.082 7.002,2.176 6.726,2.176L1.116,2.176L1.116,7.792C1.116,8.089 1.002,8.36 0.786,8.576C0.566,8.793 0.295,8.908 0,8.908" style="fill:rgb(247,247,247);fill-rule:nonzero;"/>
            </g>
            <g transform="matrix(1,0,0,1,66.0785,31.019)">
                <path d="M0,9.369C-0.325,9.369 -0.606,9.248 -0.815,9.02C-1.011,8.809 -1.114,8.544 -1.114,8.253L-1.114,1.116C-1.114,0.819 -1.001,0.548 -0.785,0.331C-0.565,0.115 -0.294,0 0.001,0C0.326,0 0.608,0.121 0.816,0.349C1.012,0.56 1.115,0.826 1.115,1.116L1.115,8.253C1.115,8.55 1.002,8.822 0.786,9.038C0.566,9.255 0.295,9.369 0,9.369" style="fill:rgb(247,247,247);fill-rule:nonzero;"/>
            </g>
            <g transform="matrix(1,0,0,1,41.0971,34.5798)">
                <path d="M0.373,-14.375C0.162,-14.581 -0.114,-14.691 -0.399,-14.685C-6.078,-14.638 -10.721,-10.33 -11.198,-4.664C-11.333,-3.078 -11.128,-1.521 -10.591,-0.035C-10.447,0.365 -10.08,0.648 -9.656,0.685C-9.496,0.699 -9.333,0.677 -9.189,0.624C-8.915,0.525 -8.694,0.325 -8.569,0.058C-8.445,-0.206 -8.432,-0.503 -8.531,-0.778C-8.96,-1.965 -9.123,-3.211 -9.017,-4.48C-8.634,-9.012 -4.922,-12.457 -0.38,-12.494C-0.088,-12.497 0.187,-12.614 0.392,-12.823C0.597,-13.031 0.707,-13.307 0.705,-13.598C0.703,-13.893 0.585,-14.169 0.373,-14.375" style="fill:rgb(247,247,247);fill-rule:nonzero;"/>
            </g>
            <g transform="matrix(1,0,0,1,157.381,34.5798)">
                <path d="M-0.705,-13.598C-0.707,-13.307 -0.596,-13.031 -0.392,-12.823C-0.187,-12.614 0.088,-12.497 0.38,-12.494C4.922,-12.457 8.634,-9.012 9.017,-4.48C9.123,-3.211 8.96,-1.965 8.531,-0.778C8.432,-0.503 8.446,-0.206 8.569,0.058C8.694,0.325 8.915,0.525 9.189,0.624C9.333,0.677 9.496,0.699 9.656,0.685C10.08,0.648 10.447,0.365 10.591,-0.035C11.128,-1.521 11.333,-3.078 11.198,-4.664C10.721,-10.33 6.078,-14.638 0.399,-14.685C0.114,-14.691 -0.162,-14.581 -0.373,-14.375C-0.585,-14.169 -0.703,-13.893 -0.705,-13.598" style="fill:rgb(247,247,247);fill-rule:nonzero;"/>
            </g>
            <g transform="matrix(0.91061,0,0,0.864721,102.004,54.5119)">
                <path d="M0,-4.878C-0.405,-4.878 -0.769,-4.774 -1.081,-4.569C-1.396,-4.362 -1.645,-4.073 -1.823,-3.711C-2.003,-3.345 -2.094,-2.917 -2.094,-2.439C-2.094,-1.967 -2.003,-1.541 -1.823,-1.171C-1.645,-0.806 -1.396,-0.516 -1.081,-0.309C-0.769,-0.104 -0.405,0 0,0C0.411,0 0.777,-0.104 1.09,-0.309C1.404,-0.516 1.654,-0.806 1.833,-1.172C2.013,-1.541 2.104,-1.967 2.104,-2.439C2.104,-2.911 2.013,-3.337 1.833,-3.707C1.654,-4.072 1.404,-4.362 1.09,-4.569C0.777,-4.774 0.411,-4.878 0,-4.878M0,0.942C-0.441,0.942 -0.854,0.856 -1.229,0.687C-1.602,0.518 -1.931,0.276 -2.206,-0.03C-2.48,-0.336 -2.695,-0.698 -2.844,-1.106C-2.991,-1.514 -3.065,-1.962 -3.065,-2.439C-3.065,-2.916 -2.991,-3.364 -2.844,-3.771C-2.695,-4.18 -2.48,-4.542 -2.206,-4.848C-1.93,-5.154 -1.602,-5.396 -1.228,-5.565C-0.854,-5.734 -0.441,-5.82 0,-5.82C0.448,-5.82 0.864,-5.734 1.237,-5.565C1.61,-5.396 1.939,-5.155 2.215,-4.848C2.49,-4.542 2.705,-4.18 2.856,-3.772C3.008,-3.364 3.084,-2.916 3.084,-2.439C3.084,-1.962 3.008,-1.513 2.856,-1.106C2.705,-0.698 2.49,-0.336 2.215,-0.03C1.939,0.277 1.61,0.518 1.237,0.687C0.864,0.856 0.448,0.942 0,0.942" style="fill:rgb(247,247,247);fill-rule:nonzero;"/>
            </g>
            <g transform="matrix(0.91061,0,0,0.864721,107.366,49.9102)">
                <path d="M0,6.173C-0.086,6.173 -0.19,6.167 -0.315,6.154C-0.449,6.14 -0.584,6.096 -0.714,6.023C-0.849,5.946 -0.962,5.819 -1.051,5.646C-1.139,5.474 -1.182,5.246 -1.182,4.947L-1.182,2.171L-1.639,2.171C-1.755,2.171 -1.858,2.127 -1.946,2.04C-2.035,1.954 -2.08,1.848 -2.08,1.728C-2.08,1.6 -2.034,1.493 -1.944,1.408C-1.857,1.326 -1.754,1.284 -1.639,1.284L-1.182,1.284L-1.182,0.527C-1.182,0.396 -1.136,0.282 -1.046,0.189C-0.863,0 -0.558,0.001 -0.387,0.192C-0.305,0.285 -0.264,0.398 -0.264,0.527L-0.264,1.284L0.431,1.284C0.556,1.284 0.661,1.33 0.743,1.419C0.823,1.506 0.864,1.612 0.864,1.737C0.864,1.856 0.823,1.959 0.741,2.043C0.659,2.128 0.555,2.171 0.431,2.171L-0.264,2.171L-0.264,4.911C-0.264,5.068 -0.237,5.147 -0.216,5.185C-0.187,5.237 -0.15,5.271 -0.105,5.289C-0.005,5.33 0.096,5.332 0.159,5.301C0.293,5.238 0.474,5.233 0.604,5.381C0.671,5.46 0.705,5.558 0.705,5.674C0.705,5.777 0.664,5.923 0.469,6.043C0.33,6.129 0.172,6.173 0,6.173" style="fill:rgb(247,247,247);fill-rule:nonzero;"/>
            </g>
            <g transform="matrix(0.91061,0,0,0.864721,110.807,54.5594)">
                <path d="M0,-3.351C-0.271,-3.351 -0.521,-3.279 -0.743,-3.136C-0.968,-2.992 -1.146,-2.794 -1.275,-2.549C-1.404,-2.302 -1.47,-2.008 -1.47,-1.675C-1.47,-1.349 -1.404,-1.056 -1.274,-0.806C-1.146,-0.558 -0.968,-0.359 -0.743,-0.215C-0.296,0.074 0.313,0.068 0.747,-0.214C0.968,-0.358 1.146,-0.557 1.273,-0.806C1.403,-1.056 1.469,-1.349 1.469,-1.675C1.469,-2.008 1.403,-2.302 1.274,-2.549C1.146,-2.795 0.968,-2.993 0.747,-3.136C0.527,-3.279 0.276,-3.351 0,-3.351M0,0.887C-0.447,0.887 -0.856,0.775 -1.219,0.553C-1.58,0.332 -1.869,0.024 -2.08,-0.36C-2.29,-0.744 -2.396,-1.186 -2.396,-1.675C-2.396,-2.164 -2.29,-2.607 -2.08,-2.991C-1.869,-3.375 -1.58,-3.683 -1.219,-3.904C-0.856,-4.125 -0.447,-4.238 0,-4.238C0.452,-4.238 0.863,-4.125 1.223,-3.904C1.58,-3.683 1.867,-3.375 2.075,-2.991C2.282,-2.605 2.388,-2.163 2.388,-1.675C2.388,-1.187 2.282,-0.745 2.075,-0.361C1.867,0.024 1.58,0.332 1.223,0.553C0.863,0.774 0.452,0.887 0,0.887" style="fill:rgb(247,247,247);fill-rule:nonzero;"/>
            </g>
            <g transform="matrix(0.91061,0,0,0.864721,116.064,52.868)">
                <path d="M0,-1.395C-0.271,-1.395 -0.513,-1.323 -0.719,-1.182C-0.929,-1.039 -1.094,-0.842 -1.211,-0.597C-1.33,-0.348 -1.391,-0.059 -1.391,0.262C-1.391,0.584 -1.33,0.878 -1.211,1.136C-1.094,1.39 -0.928,1.593 -0.719,1.739C-0.512,1.883 -0.271,1.956 0,1.956C0.27,1.956 0.51,1.883 0.713,1.739C0.92,1.593 1.086,1.39 1.206,1.135C1.328,0.878 1.39,0.584 1.39,0.262C1.39,-0.059 1.328,-0.347 1.207,-0.596C1.087,-0.841 0.921,-1.039 0.714,-1.182C0.51,-1.323 0.271,-1.395 0,-1.395M0.097,2.843C-0.132,2.843 -0.35,2.806 -0.552,2.732C-0.751,2.659 -0.936,2.559 -1.1,2.435C-1.192,2.364 -1.278,2.289 -1.354,2.21L-1.354,2.318C-1.354,2.447 -1.396,2.56 -1.479,2.653C-1.646,2.839 -1.96,2.848 -2.142,2.661C-2.229,2.57 -2.273,2.455 -2.273,2.318L-2.273,-3.712C-2.273,-3.842 -2.229,-3.956 -2.144,-4.048C-1.964,-4.243 -1.646,-4.235 -1.479,-4.047C-1.396,-3.955 -1.354,-3.842 -1.354,-3.712L-1.354,-1.625C-1.27,-1.722 -1.172,-1.811 -1.063,-1.892C-0.907,-2.01 -0.729,-2.105 -0.534,-2.176C-0.339,-2.246 -0.132,-2.282 0.079,-2.282C0.498,-2.282 0.879,-2.17 1.213,-1.95C1.544,-1.732 1.81,-1.429 2.002,-1.05C2.193,-0.673 2.291,-0.231 2.291,0.262C2.291,0.756 2.193,1.2 2.002,1.584C1.81,1.968 1.546,2.277 1.219,2.501C0.888,2.728 0.511,2.843 0.097,2.843" style="fill:rgb(247,247,247);fill-rule:nonzero;"/>
            </g>
            <g transform="matrix(0.91061,0,0,0.864721,121.106,54.5594)">
                <path d="M0,-3.351C-0.271,-3.351 -0.521,-3.279 -0.743,-3.136C-0.968,-2.992 -1.146,-2.794 -1.274,-2.549C-1.403,-2.302 -1.469,-2.008 -1.469,-1.675C-1.469,-1.349 -1.403,-1.056 -1.274,-0.806C-1.146,-0.558 -0.967,-0.359 -0.743,-0.215C-0.295,0.074 0.314,0.068 0.747,-0.214C0.969,-0.358 1.146,-0.557 1.274,-0.806C1.404,-1.056 1.47,-1.349 1.47,-1.675C1.47,-2.008 1.404,-2.302 1.275,-2.549C1.146,-2.795 0.969,-2.993 0.747,-3.136C0.528,-3.279 0.277,-3.351 0,-3.351M0,0.887C-0.446,0.887 -0.856,0.775 -1.218,0.553C-1.579,0.332 -1.868,0.024 -2.079,-0.36C-2.289,-0.744 -2.396,-1.186 -2.396,-1.675C-2.396,-2.164 -2.29,-2.607 -2.079,-2.991C-1.868,-3.375 -1.579,-3.683 -1.218,-3.904C-0.856,-4.125 -0.446,-4.238 0,-4.238C0.452,-4.238 0.864,-4.125 1.224,-3.904C1.58,-3.683 1.867,-3.375 2.076,-2.991C2.283,-2.605 2.389,-2.163 2.389,-1.675C2.389,-1.187 2.283,-0.745 2.076,-0.361C1.867,0.024 1.581,0.332 1.224,0.553C0.864,0.774 0.452,0.887 0,0.887" style="fill:rgb(247,247,247);fill-rule:nonzero;"/>
            </g>
            <g transform="matrix(0.91061,0,0,0.864721,131.089,49.5565)">
                <path d="M0,6.582C-0.129,6.582 -0.241,6.534 -0.332,6.44C-0.422,6.347 -0.468,6.233 -0.468,6.102L-0.468,3.699L-3.573,3.699L-3.573,6.102C-3.573,6.234 -3.621,6.349 -3.716,6.442C-3.911,6.636 -4.23,6.62 -4.397,6.438C-4.483,6.346 -4.527,6.232 -4.527,6.102L-4.527,0.481C-4.527,0.35 -4.481,0.236 -4.391,0.144C-4.218,-0.036 -3.898,-0.053 -3.709,0.144C-3.619,0.236 -3.573,0.35 -3.573,0.481L-3.573,2.775L-0.468,2.775L-0.468,0.481C-0.468,0.349 -0.42,0.234 -0.326,0.142C-0.131,-0.054 0.187,-0.037 0.355,0.145C0.442,0.238 0.486,0.351 0.486,0.481L0.486,6.102C0.486,6.234 0.44,6.347 0.351,6.44C0.259,6.534 0.142,6.582 0,6.582" style="fill:rgb(247,247,247);fill-rule:nonzero;"/>
            </g>
            <g transform="matrix(0.91061,0,0,0.864721,133.497,53.5601)">
                <path d="M0,-1.127L2.526,-1.127C2.502,-1.331 2.429,-1.516 2.311,-1.669C2.184,-1.834 2.027,-1.962 1.846,-2.052C1.518,-2.213 1.145,-2.231 0.787,-2.093C0.63,-2.033 0.485,-1.937 0.358,-1.809C0.231,-1.681 0.129,-1.51 0.053,-1.301C0.032,-1.247 0.015,-1.189 0,-1.127M1.493,2.043C1.006,2.043 0.573,1.934 0.206,1.719C-0.161,1.504 -0.452,1.205 -0.657,0.828C-0.861,0.453 -0.965,0.015 -0.965,-0.474C-0.965,-1.017 -0.858,-1.489 -0.648,-1.876C-0.438,-2.263 -0.158,-2.564 0.183,-2.771C0.782,-3.134 1.495,-3.17 2.102,-2.92C2.363,-2.812 2.601,-2.65 2.806,-2.441C3.011,-2.233 3.177,-1.983 3.3,-1.699C3.422,-1.415 3.487,-1.089 3.493,-0.731C3.485,-0.597 3.436,-0.491 3.343,-0.408C3.253,-0.327 3.146,-0.285 3.025,-0.285L-0.052,-0.285C-0.027,-0.05 0.033,0.163 0.131,0.35C0.259,0.598 0.44,0.796 0.669,0.94C0.897,1.083 1.166,1.156 1.467,1.156C1.664,1.156 1.834,1.13 1.972,1.08C2.11,1.03 2.233,0.966 2.337,0.89C2.442,0.813 2.531,0.734 2.603,0.655C2.855,0.466 3.056,0.514 3.198,0.661C3.277,0.742 3.317,0.84 3.317,0.954C3.317,1.089 3.254,1.211 3.129,1.317C2.968,1.504 2.731,1.678 2.438,1.822C2.144,1.969 1.825,2.043 1.493,2.043" style="fill:rgb(247,247,247);fill-rule:nonzero;"/>
            </g>
            <g transform="matrix(0.91061,0,0,0.864721,138.134,49.1985)">
                <path d="M0,6.996C-0.131,6.996 -0.242,6.948 -0.329,6.852C-0.416,6.76 -0.46,6.646 -0.46,6.516L-0.46,0.532C-0.46,0.401 -0.414,0.287 -0.324,0.194C-0.137,0 0.177,0.009 0.344,0.197C0.426,0.289 0.468,0.401 0.468,0.532L0.468,6.516C0.468,6.648 0.422,6.761 0.332,6.854C0.241,6.948 0.129,6.996 0,6.996" style="fill:rgb(247,247,247);fill-rule:nonzero;"/>
            </g>
            <g transform="matrix(0.91061,0,0,0.864721,141.897,56.0505)">
                <path d="M0,-5.03C-0.271,-5.03 -0.514,-4.96 -0.721,-4.821C-0.93,-4.68 -1.095,-4.487 -1.212,-4.244C-1.33,-4 -1.391,-3.712 -1.391,-3.391C-1.391,-3.075 -1.33,-2.787 -1.211,-2.536C-1.095,-2.288 -0.93,-2.092 -0.721,-1.951C-0.514,-1.813 -0.271,-1.742 0,-1.742C0.27,-1.742 0.511,-1.813 0.715,-1.951C0.921,-2.092 1.086,-2.288 1.206,-2.537C1.328,-2.788 1.39,-3.075 1.39,-3.391C1.39,-3.712 1.328,-3.999 1.206,-4.243C1.087,-4.486 0.921,-4.68 0.715,-4.821C0.511,-4.96 0.27,-5.03 0,-5.03M-1.814,0.891C-1.943,0.891 -2.054,0.845 -2.143,0.754C-2.229,0.663 -2.274,0.548 -2.274,0.411L-2.274,-5.391C-2.274,-5.529 -2.229,-5.644 -2.143,-5.734C-1.962,-5.921 -1.648,-5.912 -1.48,-5.733C-1.397,-5.643 -1.355,-5.528 -1.355,-5.391L-1.355,-5.298C-1.27,-5.392 -1.171,-5.479 -1.062,-5.556C-0.904,-5.668 -0.726,-5.757 -0.531,-5.821C-0.337,-5.884 -0.132,-5.917 0.078,-5.917C0.496,-5.917 0.878,-5.807 1.212,-5.591C1.544,-5.374 1.809,-5.072 2.002,-4.695C2.193,-4.317 2.291,-3.878 2.291,-3.391C2.291,-2.909 2.193,-2.472 2.002,-2.092C1.809,-1.71 1.545,-1.405 1.217,-1.187C0.887,-0.967 0.509,-0.855 0.097,-0.855C-0.132,-0.855 -0.351,-0.893 -0.552,-0.967C-0.75,-1.039 -0.934,-1.135 -1.098,-1.253C-1.192,-1.321 -1.277,-1.394 -1.355,-1.472L-1.355,0.411C-1.355,0.54 -1.396,0.653 -1.479,0.746C-1.565,0.842 -1.678,0.891 -1.814,0.891" style="fill:rgb(247,247,247);fill-rule:nonzero;"/>
            </g>
            <g transform="matrix(0.91061,0,0,0.864721,148.271,52.3807)">
                <path d="M0,-0.268L0.004,-0.267C0.003,-0.275 0.001,-0.282 0,-0.289L0,-0.268ZM-1.568,-0.831C-1.837,-0.831 -2.069,-0.762 -2.278,-0.618C-2.488,-0.475 -2.654,-0.275 -2.774,-0.023C-2.896,0.23 -2.958,0.522 -2.958,0.844C-2.958,1.161 -2.896,1.45 -2.774,1.703C-2.654,1.954 -2.487,2.156 -2.278,2.302C-2.068,2.449 -1.836,2.52 -1.568,2.52C-1.293,2.52 -1.05,2.448 -0.846,2.307C-0.64,2.164 -0.476,1.964 -0.357,1.713C-0.239,1.458 -0.179,1.166 -0.179,0.844C-0.179,0.523 -0.239,0.23 -0.358,-0.025C-0.476,-0.275 -0.641,-0.475 -0.85,-0.618C-1.057,-0.76 -1.299,-0.831 -1.568,-0.831M-1.639,3.407C-2.058,3.407 -2.44,3.294 -2.777,3.07C-3.111,2.849 -3.378,2.541 -3.57,2.156C-3.763,1.773 -3.859,1.332 -3.859,0.844C-3.859,0.351 -3.763,-0.094 -3.57,-0.477C-3.378,-0.862 -3.112,-1.169 -2.781,-1.387C-2.448,-1.607 -2.072,-1.718 -1.665,-1.718C-1.406,-1.718 -1.159,-1.673 -0.931,-1.584C-0.703,-1.495 -0.501,-1.372 -0.33,-1.218C-0.29,-1.181 -0.25,-1.143 -0.214,-1.104L-0.214,-3.148C-0.214,-3.278 -0.172,-3.391 -0.09,-3.483C0.081,-3.675 0.407,-3.674 0.579,-3.49C0.662,-3.399 0.704,-3.285 0.704,-3.148L0.704,2.836C0.704,2.967 0.661,3.08 0.574,3.172C0.395,3.367 0.078,3.359 -0.09,3.17C-0.172,3.078 -0.214,2.965 -0.214,2.836L-0.214,2.751C-0.259,2.802 -0.308,2.852 -0.359,2.9C-0.521,3.051 -0.713,3.174 -0.933,3.266C-1.152,3.359 -1.391,3.407 -1.639,3.407" style="fill:rgb(247,247,247);fill-rule:nonzero;"/>
            </g>
            <g transform="matrix(0.91061,0,0,0.864721,150.796,53.5601)">
                <path d="M0,-1.127L2.527,-1.127C2.502,-1.331 2.43,-1.516 2.312,-1.669C2.185,-1.834 2.028,-1.962 1.847,-2.052C1.52,-2.213 1.146,-2.231 0.788,-2.093C0.631,-2.033 0.486,-1.937 0.359,-1.809C0.232,-1.681 0.13,-1.51 0.053,-1.301C0.033,-1.247 0.016,-1.189 0,-1.127M1.493,2.043C1.007,2.043 0.574,1.934 0.207,1.719C-0.16,1.504 -0.451,1.205 -0.656,0.828C-0.86,0.453 -0.965,0.015 -0.965,-0.474C-0.965,-1.017 -0.858,-1.489 -0.647,-1.876C-0.437,-2.263 -0.158,-2.564 0.184,-2.771C0.782,-3.134 1.495,-3.17 2.103,-2.92C2.364,-2.812 2.602,-2.65 2.807,-2.441C3.012,-2.233 3.178,-1.983 3.3,-1.699C3.423,-1.415 3.487,-1.089 3.494,-0.731C3.486,-0.597 3.436,-0.491 3.344,-0.408C3.254,-0.327 3.146,-0.285 3.025,-0.285L-0.052,-0.285C-0.026,-0.05 0.034,0.163 0.132,0.35C0.26,0.598 0.44,0.796 0.67,0.94C0.898,1.083 1.167,1.156 1.468,1.156C1.665,1.156 1.835,1.13 1.972,1.08C2.111,1.03 2.233,0.966 2.337,0.89C2.442,0.813 2.532,0.734 2.604,0.655C2.856,0.466 3.057,0.514 3.199,0.661C3.277,0.742 3.318,0.84 3.318,0.954C3.318,1.089 3.255,1.211 3.13,1.317C2.969,1.504 2.732,1.678 2.439,1.822C2.144,1.969 1.826,2.043 1.493,2.043" style="fill:rgb(247,247,247);fill-rule:nonzero;"/>
            </g>
            <g transform="matrix(0.91061,0,0,0.864721,156.473,50.85)">
                <path d="M0,5.177C-0.335,5.177 -0.671,5.112 -0.999,4.983C-1.333,4.852 -1.624,4.621 -1.865,4.297L-1.87,4.288C-1.929,4.191 -1.956,4.087 -1.952,3.979C-1.947,3.857 -1.884,3.751 -1.762,3.664C-1.673,3.606 -1.574,3.583 -1.476,3.59C-1.368,3.598 -1.271,3.65 -1.188,3.744C-1.03,3.936 -0.851,4.088 -0.652,4.198C-0.458,4.307 -0.216,4.363 0.07,4.363C0.191,4.357 0.323,4.334 0.458,4.294C0.584,4.258 0.687,4.195 0.771,4.102C0.85,4.015 0.888,3.901 0.888,3.751C0.888,3.61 0.85,3.502 0.77,3.422C0.681,3.333 0.561,3.258 0.414,3.2C0.257,3.138 0.088,3.083 -0.09,3.036C-0.286,2.981 -0.48,2.919 -0.67,2.851C-0.866,2.782 -1.045,2.69 -1.202,2.579C-1.364,2.465 -1.496,2.318 -1.594,2.144C-1.694,1.969 -1.745,1.75 -1.745,1.495C-1.745,1.201 -1.666,0.942 -1.509,0.724C-1.354,0.51 -1.146,0.342 -0.89,0.225C-0.495,0.046 -0.024,0 0.494,0.114C0.683,0.155 0.868,0.226 1.047,0.324C1.229,0.425 1.391,0.564 1.528,0.738C1.593,0.812 1.632,0.91 1.639,1.025C1.647,1.15 1.597,1.262 1.488,1.357C1.397,1.427 1.314,1.457 1.197,1.452C1.091,1.448 1,1.408 0.927,1.334C0.803,1.183 0.657,1.072 0.489,0.998C0.218,0.878 -0.118,0.835 -0.45,0.947C-0.568,0.987 -0.667,1.049 -0.746,1.132C-0.817,1.21 -0.853,1.32 -0.853,1.469C-0.849,1.602 -0.807,1.71 -0.725,1.794C-0.637,1.885 -0.514,1.961 -0.358,2.018C-0.19,2.081 -0.003,2.143 0.198,2.202C0.387,2.252 0.573,2.309 0.746,2.373C0.928,2.44 1.096,2.529 1.243,2.637C1.397,2.75 1.521,2.896 1.609,3.071C1.699,3.245 1.745,3.465 1.745,3.724C1.745,4.025 1.66,4.29 1.494,4.511C1.331,4.729 1.113,4.896 0.847,5.009C0.586,5.12 0.301,5.177 0,5.177" style="fill:rgb(247,247,247);fill-rule:nonzero;"/>
            </g>
            <g transform="matrix(0.91061,0,0,0.864721,159.482,49.2538)">
                <path d="M0,6.932C-0.137,6.932 -0.25,6.884 -0.338,6.788C-0.424,6.696 -0.468,6.582 -0.468,6.452L-0.468,0.468C-0.468,0.337 -0.424,0.224 -0.338,0.131C-0.166,-0.055 0.147,-0.064 0.33,0.131C0.415,0.224 0.459,0.337 0.459,0.468L0.459,4.1L2.596,2.126C2.788,1.943 3.071,1.942 3.245,2.138C3.33,2.234 3.374,2.339 3.374,2.451C3.374,2.578 3.314,2.697 3.198,2.802L1.63,4.217L3.347,6.116C3.435,6.216 3.479,6.331 3.479,6.461C3.479,6.602 3.423,6.721 3.315,6.805C3.065,6.996 2.832,6.941 2.677,6.769L0.931,4.848L0.459,5.273L0.459,6.452C0.459,6.582 0.415,6.696 0.33,6.788C0.241,6.884 0.13,6.932 0,6.932" style="fill:rgb(247,247,247);fill-rule:nonzero;"/>
            </g>
        </g>
    </g>
</svg>
