<?xml version="1.0" encoding="utf-8"?>
<!-- Generator: Adobe Illustrator 13.0.0, SVG Export Plug-In . SVG Version: 6.00 Build 14948)  -->
<!DOCTYPE svg PUBLIC "-//W3C//DTD SVG 1.1//EN" "http://www.w3.org/Graphics/SVG/1.1/DTD/svg11.dtd">
<svg version="1.1" id="Layer_1" xmlns="http://www.w3.org/2000/svg" xmlns:xlink="http://www.w3.org/1999/xlink" x="0px" y="0px"
	 width="574.835px" height="374.172px" viewBox="0 0 574.835 374.172" enable-background="new 0 0 574.835 374.172"
	 xml:space="preserve">
<path d="M102.047,79.37H5.669V5.669h96.378V79.37z M107.717,0H0v85.039h107.717V0z"/>
<path d="M97.627,40.239c-2.067-2.489-3.974-5.24-5.182-7.496l-0.669-1.223v-4.556v-4.541l-0.597-2.446
	c-0.335-1.339-0.684-2.518-0.801-2.634c-0.378-0.408-0.597-0.044-1.019,1.645c-0.218,0.917-0.436,1.644-0.48,1.601
	c-0.058-0.044-0.553-1.922-1.121-4.178c-0.975-3.944-1.033-4.104-1.368-4.104s-0.393,0.16-1.368,4.104
	c-0.568,2.256-1.063,4.134-1.121,4.178c-0.044,0.043-0.262-0.684-0.48-1.601c-0.408-1.631-0.641-2.038-0.99-1.689
	c-0.073,0.073-0.422,1.281-0.786,2.664c-0.612,2.46-0.641,2.605-0.641,4.818v2.3H54.003h-27v-2.417c0-2.27-0.03-2.518-0.51-4.468
	c-0.742-2.97-0.771-3.042-1.135-2.984c-0.262,0.044-0.364,0.291-0.728,1.761c-0.233,0.946-0.466,1.689-0.495,1.645
	c-0.044-0.029-0.539-1.921-1.106-4.192c-0.961-3.77-1.077-4.119-1.368-4.163c-0.248-0.044-0.35,0.044-0.423,0.364
	c-0.058,0.218-0.553,2.139-1.077,4.265c-0.538,2.125-1.019,3.755-1.062,3.639c-0.058-0.117-0.248-0.859-0.451-1.66
	c-0.626-2.518-0.859-2.372-1.747,1.136l-0.67,2.707v4.483v4.483l-1.077,1.849c-1.208,2.067-2.765,4.25-4.498,6.332
	c-1.31,1.557-5.066,5.414-5.27,5.414l0,0v4.004v-0.001l1.02-0.931c2.766-2.358,7.249-7.322,9.098-10.087
	c0.363-0.539,0.669-0.99,0.698-0.99c0.015,0,0.029,4.454,0.029,9.898v9.898l-5.414-0.03l-5.43-0.043v-0.001l-0.001,5.897v-0.001
	h2.912h2.984v4.527v4.526l0.422,0.423l0.423,0.422h9.417c10.509,0,10.116,0.043,10.393-0.99c0.087-0.306,0.16-2.111,0.16-4.192
	v-3.668l0.699,0.029l0.698,0.014l8.035-8.34c4.425-4.585,8.035-8.413,8.035-8.501c0-0.101-0.335-0.684-0.757-1.324
	c-0.611-0.932-0.815-1.135-1.063-1.092c-0.174,0.044-4.483,2.839-9.577,6.215l-9.258,6.143l-0.917-0.044l-0.917-0.043L27.032,45.13
	c-0.015-6.521,0-11.951,0.043-12.052c0.044-0.131,5.59-0.175,27.001-0.175h26.928v12.081v12.082h-0.931h-0.946l-9.316-6.187
	c-5.138-3.406-9.447-6.186-9.592-6.186c-0.291,0-1.834,2.256-1.732,2.518c0.043,0.102,3.697,3.93,8.122,8.53l8.049,8.34l0.699-0.073
	l0.698-0.087v4.003v4.017l0.423,0.423l0.422,0.422h9.461h9.461l0.451-0.379l0.452-0.378v-4.571v-4.57h2.838h2.768v0.001v-5.897
	v0.001l-5.272,0.043l-5.283,0.03v-9.855c0-5.415,0.058-9.796,0.116-9.723c0.073,0.087,0.509,0.699,0.975,1.383
	c2.038,2.955,5.517,6.856,8.777,9.81l0.687,0.699v-4.249l-0.001-0.001C102.169,45.128,98.835,41.68,97.627,40.239"/>
<path d="M102.047,175.747H5.669v-73.701h96.378V175.747z M107.717,96.377H0v85.039h107.717V96.377z"/>
<path d="M102.047,272.125H5.669v-73.701h96.378V272.125z M107.717,192.755H0v85.039h107.717V192.755z"/>
<path d="M27.472,202.728c-2.424,0.588-4.475,2.567-5.178,4.978c-0.344,1.176-0.315,2.939,0.058,4.131
	c1.348,4.303,6.425,6.297,10.499,4.131c0.946-0.518,2.18-1.736,2.782-2.77c0.56-0.945,0.933-2.395,0.918-3.527
	C36.523,204.965,32.119,201.608,27.472,202.728"/>
<path d="M37.713,205.969c0.244,0.502,0.545,1.406,0.674,2.009l0.23,1.118h20.668c12.823,0,21.041,0.058,21.644,0.144
	c2.438,0.359,4.432,2.123,5.063,4.504c0.158,0.602,0.201,3.471,0.201,15.72c0,9.581-0.058,15.218-0.158,15.62
	c-0.359,1.563-1.693,3.284-3.113,4.017c-1.491,0.76-0.545,0.73-23.78,0.73H37.613l-0.101,1.176c-0.057,0.66-0.129,1.564-0.186,2.009
	l-0.086,0.831h8.634c4.733,0,8.62,0.029,8.62,0.072s-1.678,2.51-3.729,5.479c-2.065,2.969-3.829,5.564-3.944,5.795
	c-0.445,0.859-0.115,2.051,0.717,2.566c0.574,0.359,1.535,0.373,2.094,0.043c0.273-0.157,1.664-2.037,3.758-5.062l3.328-4.805
	l0.071,4.445c0.086,4.978,0.086,4.963,1.09,5.451c0.99,0.459,2.137,0.1,2.682-0.861c0.115-0.186,0.201-1.691,0.244-4.504
	l0.072-4.201l3.285,4.617c1.979,2.77,3.471,4.734,3.729,4.906c0.674,0.416,1.821,0.301,2.381-0.244
	c0.559-0.531,0.817-1.348,0.617-1.979c-0.072-0.244-1.922-2.955-4.103-6.011c-2.194-3.055-3.973-5.579-3.973-5.622
	s4.346-0.101,9.653-0.114l9.639-0.043l1.147-0.402c2.697-0.961,4.834-2.84,6.01-5.307c1.004-2.123,0.961-1.248,0.918-19.033
	l-0.043-15.993l-0.402-1.075c-1.19-3.127-3.499-5.351-6.669-6.44l-1.105-0.372l-22.332-0.044l-22.332-0.028L37.713,205.969z"/>
<path d="M63.129,213.786c-0.445,0.086-0.889,0.846-0.889,1.492c0,0.287-0.043,0.73-0.086,0.975
	c-0.086,0.373-0.158,0.445-0.517,0.445c-0.602,0-2.065,0.401-2.754,0.745c-2.538,1.276-3.528,3.931-2.495,6.67
	c0.33,0.889,1.448,2.18,2.338,2.711c0.33,0.186,1.821,0.775,3.313,1.291c3.801,1.334,4.504,1.707,4.948,2.696
	c0.517,1.147,0.287,2.252-0.66,3.069c-0.616,0.56-1.004,0.718-2.022,0.89c-1.821,0.301-5.02-0.66-5.493-1.649
	c-0.072-0.158-0.273-0.589-0.445-0.976c-0.459-1.004-1.262-1.349-2.137-0.903c-0.602,0.315-0.732,0.788-0.732,2.682
	c0,1.993,0.158,2.468,0.961,2.797c0.617,0.259,1.191,0.157,1.607-0.286l0.315-0.33l0.89,0.459c0.487,0.258,1.104,0.516,1.348,0.573
	c0.258,0.044,0.502,0.144,0.531,0.187c0.028,0.057,0,1.133-0.072,2.381c-0.158,2.61-0.072,3.112,0.588,3.385
	c0.502,0.215,1.176,0.072,1.52-0.301c0.201-0.229,0.287-0.674,0.388-2.109c0.057-1.004,0.143-2.15,0.186-2.553l0.072-0.73
	l0.76-0.102c1.219-0.143,2.567-0.616,3.5-1.232c2.18-1.463,2.911-4.289,1.75-6.698c-0.818-1.664-2.195-2.539-6.096-3.83
	c-1.334-0.445-2.725-0.961-3.07-1.133c-1.706-0.875-2.18-2.84-1.018-4.174c0.918-1.033,3.069-1.492,4.877-1.033
	c1.29,0.33,1.864,0.746,2.352,1.722c0.617,1.219,1.606,1.592,2.309,0.875c0.344-0.33,0.359-0.416,0.359-2.281
	c0-1.907,0-1.936-0.373-2.223c-0.474-0.373-0.717-0.373-1.42-0.015l-0.56,0.287l-1.219-0.431l-1.233-0.416l0.043-0.946
	c0.071-1.177-0.144-1.722-0.717-1.923c-0.244-0.086-0.488-0.143-0.531-0.143C63.502,213.714,63.315,213.757,63.129,213.786"/>
<path d="M20.86,217.085c-1.248,0.273-2.166,0.947-2.668,1.951c-0.803,1.562-0.846,2.883-0.344,12.679
	c0.373,7.301,0.43,7.745,1.09,8.663c0.473,0.674,1.047,0.889,2.639,0.976l1.434,0.087l0.66,11.345
	c0.732,12.364,0.674,11.976,1.607,12.536c0.416,0.258,0.745,0.287,3.901,0.287c3.901,0,4.016-0.029,4.747-1.148l0.388-0.573
	l1.735-19.751c1.406-15.992,1.779-19.765,1.951-19.851c0.115-0.057,3.098-0.631,6.627-1.276c3.514-0.646,6.626-1.219,6.898-1.306
	c1.22-0.329,2.109-1.333,2.109-2.38c0-0.789-0.287-1.35-0.961-1.865l-0.516-0.402l-8.276-0.043l-8.276-0.027l-0.875,0.572
	c-1.004,0.675-2.18,1.177-3.342,1.436l-0.803,0.172l-0.646,1.319l-0.645,1.306l-0.66-1.306l-0.66-1.306l-0.946-0.229
	c-1.191-0.302-2.468-0.861-3.342-1.492c-0.603-0.43-0.761-0.473-1.607-0.459C21.563,217.013,21.018,217.042,20.86,217.085"/>
<path d="M72.71,233.235c-0.731,0.373-0.947,1.649-0.43,2.496l0.287,0.473h4.345c5.064,0,4.848,0.058,4.949-1.42
	c0.057-0.717,0.014-0.875-0.301-1.248l-0.359-0.416l-4.073-0.043C74.058,233.05,72.983,233.093,72.71,233.235"/>
<path d="M102.047,368.503H5.669v-73.701h96.378V368.503z M107.717,289.133H0v85.039h107.717V289.133z"/>
<rect y="289.134" width="107.717" height="28.347"/>
<g>
	<path fill="#FFFFFF" d="M45.508,310.242l-2.039,0.004l-8.146-10.442v10.438h-1.976v-13.585H35.4l8.151,10.449v-10.449h1.957
		V310.242z"/>
	<path fill="#FFFFFF" d="M61.772,303.497c0,1.926-0.681,3.569-2.042,4.931c-1.362,1.361-3.005,2.042-4.931,2.042
		c-1.913,0-3.55-0.681-4.912-2.042c-1.362-1.361-2.042-3.005-2.042-4.931c0-1.925,0.678-3.572,2.033-4.939
		c1.355-1.368,2.995-2.053,4.921-2.053c1.925,0,3.569,0.682,4.931,2.043C61.091,299.909,61.772,301.56,61.772,303.497z
		 M59.91,303.497c0-1.411-0.497-2.615-1.491-3.613c-0.995-0.999-2.201-1.498-3.62-1.498c-1.406,0-2.606,0.499-3.601,1.498
		c-0.995,0.998-1.491,2.202-1.491,3.613s0.494,2.613,1.482,3.604c0.988,0.992,2.191,1.487,3.61,1.487
		c1.406,0,2.609-0.495,3.61-1.487C59.41,306.11,59.91,304.908,59.91,303.497z"/>
	<path fill="#FFFFFF" d="M74.532,296.657l-4.95,13.585h-1.844l-4.978-13.585l2.022-0.003l3.875,10.632l3.841-10.632L74.532,296.657z
		"/>
</g>
<g>
	<path d="M50.258,360.877H29.237c0.356-0.795,0.648-1.407,0.875-1.838c0.681-1.323,1.264-2.333,1.751-3.028l7.506-10.038
		c1.898-2.587,2.963-4.077,3.192-4.471c0.852-1.539,1.277-3.308,1.277-5.305c0-1.965-0.572-3.487-1.715-4.568
		c-1.144-1.081-2.63-1.622-4.459-1.622c-1.307,0-2.654,0.274-4.042,0.821c-1.389,0.547-2.752,1.352-4.091,2.413v-5.097
		c3.005-1.992,5.912-2.988,8.722-2.988c3.005,0,5.488,1.028,7.448,3.087c1.96,2.058,2.94,4.672,2.94,7.84
		c0,1.993-0.253,3.65-0.759,4.974c-0.507,1.323-1.414,2.866-2.72,4.63l-7.986,10.34h13.083V360.877z"/>
	<path d="M78.628,339.053c0,2.773-0.605,5.628-1.813,8.563c-1.307,3.197-3.283,6.329-5.929,9.396
		c-0.458,0.554-0.964,1.158-1.519,1.811c-0.654,0.783-1.258,1.468-1.813,2.055h-5.831c1.11-1.073,1.985-1.961,2.622-2.66
		c0.637-0.7,1.38-1.604,2.229-2.711c0.359-0.487,1.159-1.464,2.401-2.929c1.862-2.246,2.989-4.004,3.381-5.273
		c-0.85,0.621-1.936,1.169-3.259,1.642c-1.323,0.474-2.654,0.711-3.993,0.711c-0.36,0-0.637-0.017-0.833-0.049
		c-3.3-0.295-5.913-1.552-7.84-3.773c-1.928-2.221-2.891-5.014-2.891-8.379c0-3.397,1.184-6.279,3.553-8.648
		c2.368-2.368,5.25-3.553,8.648-3.553c3.626,0,6.68,1.306,9.163,3.915C77.386,331.778,78.628,335.073,78.628,339.053z
		 M73.973,339.807c0-2.449-0.67-4.605-2.009-6.468c-1.568-2.156-3.643-3.234-6.223-3.234c-2.026,0-3.765,0.711-5.218,2.132
		c-1.454,1.421-2.181,3.16-2.181,5.219c0,2.352,0.662,4.189,1.984,5.513c1.323,1.322,3.209,1.984,5.66,1.984
		c1.47,0,2.964-0.326,4.483-0.98c1.519-0.652,2.622-1.354,3.308-2.106C73.907,341.245,73.973,340.559,73.973,339.807z"/>
</g>
<g>
	<path d="M173.394,73.909h-38.27v-61.49h8.858v52.546h29.412V73.909z"/>
	<path d="M222.929,53.656c0,5.86-2.107,10.902-6.321,15.124c-4.214,4.222-9.245,6.333-15.093,6.333
		c-5.906,0-10.952-2.096-15.136-6.29c-4.186-4.194-6.278-9.249-6.278-15.167c0-5.917,2.092-10.972,6.278-15.166
		c4.184-4.194,9.23-6.292,15.136-6.292c5.905,0,10.95,2.098,15.136,6.292C220.835,42.685,222.929,47.74,222.929,53.656z
		 M214.501,53.656c0-3.566-1.27-6.614-3.81-9.146c-2.54-2.532-5.6-3.797-9.177-3.797c-3.578,0-6.637,1.266-9.176,3.797
		s-3.81,5.579-3.81,9.146s1.27,6.615,3.81,9.147c2.54,2.531,5.598,3.796,9.176,3.796c3.577,0,6.637-1.265,9.177-3.796
		C213.231,60.271,214.501,57.223,214.501,53.656z"/>
	<path d="M268.079,73.909h-8.428V48.023c0-2.006-0.8-3.668-2.399-4.988c-1.884-1.548-4.453-2.322-7.708-2.322
		c-1.828,0-3.74,0.374-5.738,1.118c-1.314,0.516-2.941,1.32-4.882,2.408v29.67h-8.428V33.231h8.428v2.236
		c1.658-0.688,3.458-1.404,5.402-2.15c1.943-0.745,3.687-1.118,5.231-1.118c5.601,0,10.089,1.492,13.462,4.472
		c3.373,2.981,5.059,6.68,5.059,11.094V73.909z"/>
	<path d="M317.271,73.995h-8.429v-1.72c-1.886,0.917-3.603,1.62-5.146,2.107c-1.544,0.486-3.144,0.731-4.802,0.731
		c-5.89,0-10.921-2.092-15.095-6.278c-4.174-4.184-6.261-9.23-6.261-15.136c0-5.848,2.087-10.864,6.261-15.05
		c4.174-4.185,9.205-6.278,15.095-6.278c3.544,0,6.86,0.804,9.948,2.408v-22.36h8.429V73.995z M308.842,63.331V43.895
		c-2.685-1.26-4.285-1.978-4.798-2.15c-1.6-0.572-3.312-0.86-5.14-0.86c-3.599,0-6.656,1.233-9.169,3.698
		c-2.513,2.466-3.769,5.504-3.769,9.116c0,3.556,1.256,6.594,3.769,9.116c2.513,2.524,5.57,3.784,9.169,3.784
		c1.427,0,2.741-0.186,3.94-0.559C304.044,65.668,306.043,64.765,308.842,63.331z"/>
	<path d="M368.869,53.656c0,5.86-2.107,10.902-6.321,15.124c-4.214,4.222-9.245,6.333-15.093,6.333
		c-5.905,0-10.951-2.096-15.136-6.29c-4.186-4.194-6.278-9.249-6.278-15.167c0-5.917,2.093-10.972,6.278-15.166
		c4.185-4.194,9.23-6.292,15.136-6.292c5.904,0,10.95,2.098,15.136,6.292C366.775,42.685,368.869,47.74,368.869,53.656z
		 M360.441,53.656c0-3.566-1.271-6.614-3.81-9.146c-2.54-2.532-5.6-3.797-9.177-3.797c-3.578,0-6.637,1.266-9.177,3.797
		c-2.539,2.532-3.81,5.579-3.81,9.146s1.271,6.615,3.81,9.147c2.54,2.531,5.599,3.796,9.177,3.796c3.577,0,6.637-1.265,9.177-3.796
		C359.171,60.271,360.441,57.223,360.441,53.656z"/>
	<path d="M414.02,73.909h-8.429V48.023c0-2.006-0.799-3.668-2.398-4.988c-1.884-1.548-4.453-2.322-7.708-2.322
		c-1.827,0-3.739,0.374-5.737,1.118c-1.314,0.516-2.941,1.32-4.882,2.408v29.67h-8.428V33.231h8.428v2.236
		c1.658-0.688,3.459-1.404,5.401-2.15c1.943-0.745,3.688-1.118,5.231-1.118c5.601,0,10.089,1.492,13.462,4.472
		c3.373,2.981,5.06,6.68,5.06,11.094V73.909z"/>
</g>
<g>
	<path d="M176.662,127.315c0,5.275-1.806,9.804-5.418,13.588c-3.612,3.784-8.028,5.676-13.244,5.676h-13.072v23.736h-8.944v-61.49
		h21.758c5.274,0,9.746,1.778,13.416,5.332C174.827,117.713,176.662,122.099,176.662,127.315z M167.976,127.274
		c0-2.912-0.989-5.324-2.967-7.238c-1.978-1.912-4.401-2.869-7.267-2.869h-12.814v20.898H158c2.809,0,5.173-1.07,7.095-3.211
		C167.015,132.713,167.976,130.187,167.976,127.274z"/>
	<path d="M219.489,152.083h-30.702c0,3.64,1.346,6.414,4.042,8.32c2.694,1.907,6.536,2.86,11.524,2.86
		c2.924,0,5.676-0.612,8.256-1.834c0.802-0.407,2.809-1.63,6.02-3.67l-0.172,9.086c-3.04,1.674-4.96,2.684-5.762,3.029
		c-2.638,1.097-5.418,1.645-8.342,1.645c-7.684,0-13.631-1.91-17.845-5.73s-6.321-9.062-6.321-15.727
		c0-6.031,1.948-11.116,5.848-15.251c3.898-4.136,8.8-6.206,14.706-6.206c5.905,0,10.291,1.921,13.158,5.762
		C216.535,137.923,218.399,143.828,219.489,152.083z M210.803,145.117c-0.574-2.522-1.634-4.442-3.182-5.762
		c-1.72-1.49-4.014-2.236-6.88-2.236c-3.44,0-6.02,0.746-7.74,2.236c-1.147,0.976-2.294,2.896-3.44,5.762H210.803z"/>
	<path d="M254.491,141.764c-1.483-1.49-2.938-2.637-4.366-3.44c-1.427-0.802-2.739-1.204-3.936-1.204
		c-1.77,0-3.481,0.374-5.136,1.118c-0.513,0.23-1.968,1.032-4.364,2.408v29.67h-8.428v-40.678h8.428v2.752
		c1.997-1.261,3.451-2.092,4.364-2.494c1.825-0.86,3.537-1.29,5.136-1.29c1.141,0,2.467,0.202,3.979,0.602
		c1.512,0.402,2.952,0.89,4.323,1.462V141.764z"/>
	<path d="M284.074,169.872c-0.746,0.52-1.922,0.924-3.526,1.215c-1.605,0.288-3.297,0.433-5.074,0.433
		c-5.39,0-9.03-1.12-10.922-3.358c-1.548-1.837-2.322-5.109-2.322-9.818v-49.519h8.428v48.408c0,2.757,0.142,4.422,0.43,4.996
		c0.63,1.263,2.322,1.895,5.074,1.895c1.948,0,3.453-0.25,4.515-0.75c1.06-0.5,2.193-1.396,3.397-2.69V169.872z"/>
	<path d="M361.129,170.401l-10.148-0.086l-2.494-3.096c-2.352,1.548-4.759,2.739-7.224,3.569c-2.466,0.83-4.846,1.247-7.138,1.247
		c-5.046,0-9.36-1.792-12.943-5.375c-3.584-3.583-5.375-7.897-5.375-12.943c0-3.324,0.658-6.192,1.979-8.6
		c1.317-2.408,3.726-5.016,7.224-7.826c-1.548-2.064-2.695-3.698-3.44-4.902c-2.293-3.784-3.439-6.908-3.439-9.374
		c0-4.415,1.533-8.041,4.601-10.879c3.066-2.838,6.865-4.257,11.396-4.257c4.472,0,8.241,1.42,11.309,4.258
		c3.066,2.839,4.602,6.466,4.602,10.882c0,3.671-2.21,7.4-6.628,11.184c-1.435,1.262-3.674,2.81-6.715,4.645l12.739,16.676
		c0.802-0.4,1.476-1.032,2.021-1.892c0.546-0.86,0.818-2.006,0.818-3.44h8.084c0,2.408-0.502,4.687-1.505,6.837
		c-1.004,2.15-2.337,3.827-3.999,5.031L361.129,170.401z M343.413,160.941L329.911,144c-2.752,2.352-4.215,3.642-4.387,3.87
		c-1.147,1.434-1.72,3.354-1.72,5.762c0,2.924,0.946,5.448,2.838,7.568c1.893,2.122,4.271,3.182,7.138,3.182
		c1.433,0,2.938-0.258,4.516-0.774C339.872,163.091,341.577,162.203,343.413,160.941z M341.435,122.414
		c0-2.178-0.632-3.898-1.892-5.16c-1.262-1.26-2.982-1.892-5.16-1.892c-2.236,0-4.157,0.718-5.762,2.15
		c-1.606,1.434-2.408,3.268-2.408,5.504c0,1.319,0.944,3.24,2.835,5.762c0.629,0.804,1.574,1.95,2.834,3.44
		c2.123-1.376,3.701-2.464,4.732-3.268C339.827,126.37,341.435,124.191,341.435,122.414z"/>
	<path d="M438.784,170.317l-11.031-0.043l-17.798-26.491l-7.892,0.044v26.488h-8.944v-61.49h19.437
		c4.815,0,8.943,1.692,12.384,5.074c3.439,3.384,5.16,7.512,5.16,12.384c0,3.498-0.933,6.665-2.795,9.503
		c-1.864,2.838-4.373,4.975-7.525,6.407L438.784,170.317z M421.327,126.542c0-2.464-0.859-4.558-2.58-6.278
		c-1.72-1.72-3.784-2.58-6.191-2.58h-10.492v17.63h10.492c2.407,0,4.472-0.86,6.191-2.58
		C420.468,131.014,421.327,128.949,421.327,126.542z"/>
	<path d="M479.894,170.401h-8.234l-0.601-1.806c-2.518,1.124-3.976,1.772-4.376,1.95c-1.716,0.649-3.346,0.974-4.889,0.974
		c-5.376,0-9.351-1.094-11.924-3.279c-2.287-1.955-3.431-4.687-3.431-8.196c0-3.163,0.63-5.693,1.892-7.592
		c2.351-3.509,6.708-5.723,13.072-6.644c2.236-0.344,3.898-0.604,4.988-0.777c2.235-0.344,4.042-0.517,5.418-0.517
		c0-2.637-0.718-4.529-2.15-5.676c-1.434-1.146-3.728-1.72-6.88-1.72c-2.122,0-4.486,0.258-7.095,0.774
		c-2.609,0.516-4.745,1.176-6.407,1.978l4.558-9.374c0.803-0.229,2.179-0.516,4.128-0.86c3.841-0.688,6.364-1.032,7.568-1.032
		c5.389,0,9.23,1.52,11.524,4.558c1.892,2.523,2.838,6.192,2.838,11.008V170.401z M471.81,159.792v-8.741
		c-1.038,0.289-3.142,0.808-6.311,1.558c-1.556,0.347-2.766,0.665-3.63,0.953c-2.306,0.634-4.076,1.572-5.315,2.812
		s-1.858,2.466-1.858,3.678c0,1.674,0.59,2.885,1.771,3.635c1.181,0.75,2.55,1.125,4.106,1.125c0.69,0,1.181-0.028,1.469-0.086
		c1.785-0.231,3.471-0.765,5.057-1.602C468.683,162.288,470.253,161.177,471.81,159.792z"/>
	<path d="M531.406,170.315l-11.894,0.025L499.5,150.329v19.987h-8.428v-61.49h8.428v32.972l14.341-12.013l13.094,0.026
		l-19.608,16.426L531.406,170.315z"/>
	<path d="M574.835,170.401h-8.428v-2.236c-2.744,1.032-5.132,1.821-7.161,2.365c-2.029,0.544-3.559,0.817-4.586,0.817
		c-5.546,0-9.891-1.519-13.034-4.558c-2.916-2.809-4.373-6.479-4.373-11.008v-26.144h8.428v25.886c0,2.122,0.628,3.813,1.884,5.074
		c1.484,1.491,3.854,2.236,7.108,2.236c1.885,0,3.897-0.344,6.039-1.032c2.141-0.688,4.039-1.49,5.695-2.408v-29.756h8.428V170.401z
		"/>
</g>
<g>
	<path d="M215.706,205.231l-17.631,61.49h-8.77l-14.105-43.43l-14.105,43.43h-8.858l-17.543-61.49l9.3-0.003l12.897,45.204
		l13.783-42.438l8.961,0.002l13.748,42.329l12.931-45.099L215.706,205.231z"/>
	<path d="M261.114,246.469c0,5.86-2.107,10.901-6.321,15.124c-4.214,4.222-9.245,6.333-15.093,6.333
		c-5.906,0-10.952-2.097-15.136-6.29c-4.186-4.194-6.278-9.249-6.278-15.167c0-5.917,2.092-10.972,6.278-15.166
		c4.184-4.193,9.23-6.291,15.136-6.291c5.905,0,10.95,2.098,15.136,6.291C259.02,235.497,261.114,240.552,261.114,246.469z
		 M252.686,246.469c0-3.566-1.27-6.614-3.81-9.146c-2.54-2.532-5.6-3.798-9.177-3.798c-3.578,0-6.637,1.266-9.176,3.798
		c-2.54,2.531-3.81,5.579-3.81,9.146s1.27,6.615,3.81,9.146c2.54,2.532,5.598,3.797,9.176,3.797c3.577,0,6.637-1.265,9.177-3.797
		C251.416,253.084,252.686,250.035,252.686,246.469z"/>
	<path d="M294.912,238.17c-1.484-1.49-2.939-2.637-4.366-3.44c-1.427-0.802-2.739-1.204-3.936-1.204
		c-1.77,0-3.481,0.374-5.136,1.118c-0.513,0.229-1.968,1.032-4.364,2.408v29.67h-8.428v-40.678h8.428v2.752
		c1.997-1.261,3.451-2.093,4.364-2.494c1.825-0.86,3.537-1.29,5.136-1.29c1.141,0,2.467,0.201,3.979,0.602
		c1.513,0.402,2.952,0.89,4.323,1.462V238.17z"/>
	<path d="M342.469,266.722l-11.894,0.025l-20.013-20.013v19.987h-8.428v-61.49h8.428v32.972l14.341-12.013l13.094,0.025
		l-19.608,16.426L342.469,266.722z"/>
	<path d="M381.77,255.025c0,4.244-1.864,7.598-5.59,10.062c-3.384,2.235-7.77,3.354-13.158,3.354c-2.352,0-4.975-0.33-7.869-0.988
		c-2.896-0.66-5.49-1.476-7.783-2.451v-9.805c2.236,1.262,4.328,2.322,6.278,3.183c2.924,1.319,5.045,1.978,6.364,1.978
		c4.3,0,7.224-0.258,8.771-0.773c2.408-0.803,3.612-2.437,3.612-4.902c0-0.916-0.602-1.776-1.806-2.58
		c-1.492-0.974-3.842-1.834-7.053-2.58c-6.651-1.433-10.865-3.124-12.642-5.074c-1.777-1.948-2.666-4.729-2.666-8.342
		c0-3.21,1.333-5.861,3.999-7.955c2.666-2.092,6.149-3.139,10.449-3.139c2.752,0,5.618,0.315,8.6,0.946
		c3.096,0.804,5.246,1.348,6.45,1.634l-0.946,9.546c-1.835-1.204-4.071-2.249-6.708-3.139c-2.638-0.889-4.901-1.333-6.794-1.333
		c-2.523,0-4.186,0.373-4.988,1.117c-0.803,0.746-1.203,1.922-1.203,3.526c0,1.204,0.859,2.18,2.579,2.924
		c1.721,0.746,3.641,1.118,5.763,1.118c4.815,0,8.742,1.348,11.782,4.042C380.25,248.089,381.77,251.3,381.77,255.025z"/>
	<path d="M427.864,266.722h-8.428v-25.886c0-2.007-0.8-3.669-2.398-4.988c-1.884-1.548-4.453-2.322-7.708-2.322
		c-1.827,0-3.739,0.374-5.738,1.118c-1.313,0.517-2.941,1.319-4.882,2.408v29.67h-8.428v-61.49h8.428v23.048
		c1.663-0.688,3.469-1.404,5.418-2.149s3.698-1.118,5.246-1.118c5.561,0,10.033,1.491,13.416,4.472
		c3.383,2.982,5.074,6.68,5.074,11.095V266.722z"/>
	<path d="M478.518,246.469c0,5.86-2.107,10.901-6.321,15.124c-4.214,4.222-9.245,6.333-15.093,6.333
		c-5.905,0-10.951-2.097-15.136-6.29c-4.186-4.194-6.278-9.249-6.278-15.167c0-5.917,2.093-10.972,6.278-15.166
		c4.185-4.193,9.23-6.291,15.136-6.291c5.904,0,10.95,2.098,15.136,6.291C476.424,235.497,478.518,240.552,478.518,246.469z
		 M470.09,246.469c0-3.566-1.271-6.614-3.81-9.146c-2.54-2.532-5.6-3.798-9.177-3.798c-3.578,0-6.637,1.266-9.177,3.798
		c-2.539,2.531-3.81,5.579-3.81,9.146s1.271,6.615,3.81,9.146c2.54,2.532,5.599,3.797,9.177,3.797c3.577,0,6.637-1.265,9.177-3.797
		C468.819,253.084,470.09,250.035,470.09,246.469z"/>
	<path d="M526.592,246.469c0,5.86-2.079,10.901-6.235,15.124c-4.157,4.222-9.217,6.333-15.179,6.333c-1.72,0-3.44-0.238-5.16-0.711
		c-1.72-0.475-3.298-1.125-4.73-1.955v23.822h-8.428v-62.866h8.428v1.548c1.893-0.86,3.469-1.49,4.73-1.892
		c1.834-0.573,3.554-0.86,5.16-0.86c5.904,0,10.95,2.098,15.136,6.291C524.498,235.497,526.592,240.552,526.592,246.469z
		 M518.163,246.469c0-3.566-1.267-6.614-3.798-9.146c-2.532-2.532-5.582-3.798-9.15-3.798c-1.842,0-3.627,0.346-5.352,1.036
		c-0.691,0.288-2.216,1.064-4.576,2.329v19.502c2.647,1.208,4.229,1.898,4.748,2.07c1.727,0.633,3.453,0.949,5.18,0.949
		c3.568,0,6.618-1.265,9.15-3.797C516.896,253.084,518.163,250.035,518.163,246.469z"/>
</g>
<g>
	<path d="M171.846,363.127h-36.894c0.626-1.395,1.138-2.47,1.536-3.225c1.195-2.324,2.219-4.096,3.073-5.316l13.174-17.618
		c3.333-4.54,5.2-7.155,5.604-7.846c1.494-2.701,2.241-5.805,2.241-9.311c0-3.448-1.004-6.121-3.01-8.019
		c-2.007-1.897-4.616-2.846-7.826-2.846c-2.294,0-4.659,0.48-7.095,1.44c-2.438,0.961-4.831,2.373-7.181,4.235v-8.944
		c5.274-3.496,10.376-5.246,15.308-5.246c5.274,0,9.632,1.807,13.072,5.418c3.44,3.612,5.16,8.2,5.16,13.761
		c0,3.497-0.444,6.406-1.333,8.729c-0.889,2.322-2.48,5.031-4.773,8.127l-14.017,18.146h22.961V363.127z"/>
	<path d="M220.951,332.597c0,9.116-1.806,16.542-5.418,22.274c-3.899,6.191-9.231,9.288-15.996,9.288
		c-6.766,0-12.155-3.066-16.168-9.202c-3.784-5.79-5.676-13.244-5.676-22.36c0-9.058,1.892-16.512,5.676-22.359
		c4.013-6.192,9.402-9.288,16.168-9.288c6.88,0,12.24,3.096,16.082,9.288C219.173,315.971,220.951,323.425,220.951,332.597z
		 M212.523,332.597c0-7.052-0.918-12.498-2.752-16.34c-2.18-4.528-5.59-6.794-10.234-6.794c-4.472,0-7.884,2.266-10.234,6.794
		c-2.122,4.128-3.182,9.575-3.182,16.34c0,6.651,1.161,12.156,3.483,16.513c2.322,4.357,5.633,6.535,9.933,6.535
		c4.242,0,7.51-2.264,9.804-6.794C211.462,344.667,212.523,339.248,212.523,332.597z"/>
	<path d="M265.843,363.127h-36.894c0.626-1.395,1.138-2.47,1.536-3.225c1.195-2.324,2.219-4.096,3.073-5.316l13.174-17.618
		c3.333-4.54,5.2-7.155,5.604-7.846c1.494-2.701,2.241-5.805,2.241-9.311c0-3.448-1.004-6.121-3.01-8.019
		c-2.007-1.897-4.616-2.846-7.826-2.846c-2.294,0-4.659,0.48-7.095,1.44c-2.438,0.961-4.831,2.373-7.181,4.235v-8.944
		c5.274-3.496,10.376-5.246,15.308-5.246c5.274,0,9.632,1.807,13.072,5.418c3.44,3.612,5.16,8.2,5.16,13.761
		c0,3.497-0.444,6.406-1.333,8.729c-0.889,2.322-2.48,5.031-4.773,8.127l-14.017,18.146h22.961V363.127z"/>
	<path d="M311.078,343.431c0,5.677-2.209,10.623-6.623,14.837c-4.414,4.215-9.488,6.321-15.221,6.321
		c-2.523,0-5.405-0.682-8.643-2.042c-3.24-1.363-5.891-2.895-7.955-4.599l1.72-9.957c1.776,2.051,4.098,3.911,6.966,5.58
		c2.866,1.669,5.532,2.504,7.998,2.504c3.44,0,6.522-1.247,9.245-3.741s4.086-5.432,4.086-8.815c0-3.668-1.396-6.779-4.186-9.331
		c-2.791-2.55-6.199-3.826-10.226-3.826c-2.013,0-3.969,0.157-5.868,0.469c-1.898,0.312-3.566,0.729-5.004,1.251l4.472-30.444
		h28.809v8.342h-20.474l-2.352,11.863c0.86,0,1.65,0,2.368,0c0.718,0,1.624,0.086,2.714,0.258c5.225,0.918,9.561,3.412,13.006,7.483
		S311.078,338.271,311.078,343.431z"/>
</g>
<path fill="#808080" d="M98.711,140.938h-0.293l-0.775,0.972l-0.763-0.972h-0.302v2.076h0.302v-1.601l0.765,0.933l0.764-0.959v1.627
	h0.302V140.938z M96.212,140.938h-1.605v0.282h0.662v1.794h0.301v-1.794h0.642V140.938z"/>
<path d="M71.407,152.974c-3.43,2.514-8.019,2.081-10.254-0.972c-2.229-3.047-1.257-7.554,2.173-10.062
	c3.425-2.514,8.019-2.081,10.248,0.966C75.809,145.958,74.837,150.466,71.407,152.974"/>
<path fill="none" stroke="#000000" stroke-width="0.266" stroke-linejoin="round" stroke-miterlimit="10" d="M71.407,152.974
	c-3.43,2.514-8.019,2.081-10.254-0.972c-2.229-3.047-1.257-7.554,2.173-10.062c3.425-2.514,8.019-2.081,10.248,0.966
	C75.809,145.958,74.837,150.466,71.407,152.974z"/>
<path d="M69.512,125.246c4.266,3.121,5.474,8.724,2.693,12.514c-2.774,3.789-8.483,4.328-12.743,1.207
	c-4.266-3.12-5.473-8.73-2.699-12.52C59.543,122.658,65.247,122.119,69.512,125.246"/>
<path fill="none" stroke="#000000" stroke-width="0.445" stroke-linejoin="round" stroke-miterlimit="10" d="M69.512,125.246
	c4.266,3.121,5.474,8.724,2.693,12.514c-2.774,3.789-8.483,4.328-12.743,1.207c-4.266-3.12-5.473-8.73-2.699-12.52
	C59.543,122.658,65.247,122.119,69.512,125.246z"/>
<path fill="#00FF00" d="M65.779,134.72c-1.598-1.313-1.69-3.851-0.204-5.659c1.492-1.815,3.993-2.223,5.591-0.905
	c1.604,1.313,1.697,3.846,0.204,5.66C69.884,135.63,67.383,136.033,65.779,134.72"/>
<path d="M64.441,134.392c-1.604-1.319-1.697-3.851-0.211-5.666c1.493-1.814,4-2.216,5.598-0.904
	c1.604,1.313,1.697,3.852,0.204,5.666C68.546,135.302,66.039,135.705,64.441,134.392"/>
<path fill="none" stroke="#0000FF" stroke-width="1.335" stroke-linejoin="round" stroke-miterlimit="10" d="M67.779,138.367
	c-2.576-1.715-6.136-3.046-7.666-5.337c-1.139-1.703-2.433-2.372-1.071-4.056c1.3-1.592,2.025-3.301,3.833-3.585
	c2.031,0.272,3.61,0.452,4.91,2.712c-0.148,1.325,0.297,4.124-1.424,5.455l-2.978,1.653"/>
<path fill="#FF3366" d="M63.407,132.862c-1.474,0-2.669-1.17-2.669-2.619c0-1.449,1.195-2.619,2.669-2.619
	c1.474,0,2.669,1.17,2.669,2.619C66.076,131.692,64.881,132.862,63.407,132.862"/>
<path fill="#0000FF" d="M64.596,131.723c-0.551,0.452-1.375,0.365-1.839-0.198c-0.464-0.564-0.39-1.387,0.167-1.839
	c0.551-0.452,1.375-0.365,1.833,0.198C65.221,130.447,65.147,131.271,64.596,131.723"/>
<path fill="none" stroke="#0000FF" stroke-width="1.335" stroke-linejoin="round" stroke-miterlimit="10" d="M68.008,138.541
	c-2.582-1.721-6.483-1.721-8.012-4.006c-1.14-1.709-3.115-3.907-1.753-5.585c1.245-1.976,2.824-3.332,4.799-3.332
	c2.037,0.267,4.13,1.053,4.625,2.65c-0.142,1.332,0.13,3.431-1.591,4.762l-2.805,2.235"/>
<path fill="#0000FF" d="M69.166,139.209c-0.18,0.316-0.947,0.211-1.709-0.229c-0.768-0.44-1.238-1.053-1.059-1.369
	c0.186-0.309,0.948-0.21,1.715,0.23C68.875,138.286,69.352,138.894,69.166,139.209"/>
<path d="M91.525,141.996c3.424,2.508,4.396,7.022,2.161,10.068c-2.235,3.053-6.824,3.486-10.254,0.979
	c-3.424-2.514-4.396-7.022-2.161-10.069C83.506,139.922,88.095,139.481,91.525,141.996"/>
<path fill="none" stroke="#000000" stroke-width="0.266" stroke-linejoin="round" stroke-miterlimit="10" d="M91.525,141.996
	c3.424,2.508,4.396,7.022,2.161,10.068c-2.235,3.053-6.824,3.486-10.254,0.979c-3.424-2.514-4.396-7.022-2.161-10.069
	C83.506,139.922,88.095,139.481,91.525,141.996z"/>
<path fill="#FFFF00" d="M77.308,147.63c-3.963,0-7.17-2.564-7.17-5.734c0-3.164,3.207-5.734,7.17-5.734s7.17,2.57,7.17,5.734
	C84.478,145.066,81.271,147.63,77.308,147.63"/>
<path fill="none" stroke="#000000" stroke-width="0.534" stroke-linejoin="round" stroke-miterlimit="10" d="M77.308,147.63
	c-3.963,0-7.17-2.564-7.17-5.734c0-3.164,3.207-5.734,7.17-5.734s7.17,2.57,7.17,5.734C84.478,145.066,81.271,147.63,77.308,147.63z
	"/>
<path fill="#FFFFFF" d="M72.392,141.829c-1.585,0-2.867-1.288-2.867-2.867c0-1.585,1.282-2.867,2.867-2.867s2.873,1.282,2.873,2.867
	C75.265,140.541,73.977,141.829,72.392,141.829"/>
<path fill="none" stroke="#000000" stroke-width="0.624" stroke-linejoin="round" stroke-miterlimit="10" d="M72.392,141.829
	c-1.585,0-2.867-1.288-2.867-2.867c0-1.585,1.282-2.867,2.867-2.867s2.873,1.282,2.873,2.867
	C75.265,140.541,73.977,141.829,72.392,141.829z"/>
<path d="M94.887,139.314c-4.235,3.102-9.907,2.563-12.663-1.201c-2.761-3.765-1.56-9.332,2.675-12.44
	c4.236-3.102,9.907-2.563,12.663,1.201C100.324,130.646,99.122,136.212,94.887,139.314"/>
<path fill="none" stroke="#000000" stroke-width="0.445" stroke-linejoin="round" stroke-miterlimit="10" d="M94.887,139.314
	c-4.235,3.102-9.907,2.563-12.663-1.201c-2.761-3.765-1.56-9.332,2.675-12.44c4.236-3.102,9.907-2.563,12.663,1.201
	C100.324,130.646,99.122,136.212,94.887,139.314z"/>
<path fill="#00FF00" d="M95.822,136.906c-1.591,1.307-4.081,0.898-5.56-0.904c-1.48-1.802-1.394-4.322,0.198-5.629
	c1.591-1.306,4.08-0.904,5.56,0.904C97.5,133.079,97.413,135.6,95.822,136.906"/>
<path d="M94.497,136.906c-1.591,1.307-4.08,0.898-5.56-0.904c-1.48-1.802-1.394-4.322,0.198-5.622
	c1.591-1.307,4.08-0.904,5.56,0.897C96.175,133.079,96.082,135.6,94.497,136.906"/>
<path fill="none" stroke="#0000FF" stroke-width="1.335" stroke-linejoin="round" stroke-miterlimit="10" d="M96.268,128.887
	c-1.115-3.598-6.099-2.365-7.957-1.121c-2.563,1.709-2.241,1.369-3.758,3.641c-1.133,1.703-0.52,3.938,0.836,5.61
	c1.281,1.585,1.795,0.855,3.814,0.588c2.019-0.266,2.57-0.334,3.059-1.919c0.613-1.988-1.369-4.044-3.078-5.362l-1.925-1.332"/>
<path fill="#FF3366" d="M87.816,136.281c-1.3,0-2.347-1.065-2.347-2.384s1.047-2.384,2.347-2.384c1.294,0,2.341,1.065,2.341,2.384
	S89.11,136.281,87.816,136.281"/>
<path fill="#0000FF" d="M88.64,135.265c-0.551,0.446-1.368,0.359-1.827-0.204c-0.458-0.558-0.39-1.381,0.155-1.827
	c0.545-0.452,1.369-0.359,1.827,0.198C89.252,133.996,89.185,134.813,88.64,135.265"/>
<path fill="none" stroke="#0000FF" stroke-width="1.335" stroke-linejoin="round" stroke-miterlimit="10" d="M96.608,128.776
	c-1.115-3.598-7.226-2.929-9.084-1.684c-2.563,1.709-2.185,1.374-3.702,3.647c-1.134,1.696-0.124,4.762,1.232,6.433
	c1.281,1.586,2.217,1.226,4.229,0.96c2.018-0.266,2.724-0.217,3.22-1.808c0.613-1.981,0.247-4.427-1.468-5.752l-3.777-1.579"/>
<path fill="#FFFFFF" d="M81.884,141.829c-1.585,0-2.873-1.288-2.873-2.867c0-1.585,1.288-2.867,2.873-2.867s2.867,1.282,2.867,2.867
	C84.751,140.541,83.469,141.829,81.884,141.829"/>
<path fill="none" stroke="#000000" stroke-width="0.624" stroke-linejoin="round" stroke-miterlimit="10" d="M81.884,141.829
	c-1.585,0-2.873-1.288-2.873-2.867c0-1.585,1.288-2.867,2.873-2.867s2.867,1.282,2.867,2.867
	C84.751,140.541,83.469,141.829,81.884,141.829z"/>
<path d="M72.479,140.386c-0.793,0-1.437-0.644-1.437-1.437c0-0.792,0.644-1.436,1.437-1.436s1.43,0.644,1.43,1.436
	C73.908,139.742,73.271,140.386,72.479,140.386"/>
<path d="M81.989,140.225c-0.799,0-1.436-0.644-1.436-1.43c0-0.793,0.637-1.431,1.436-1.431c0.793,0,1.43,0.638,1.43,1.431
	C83.419,139.581,82.782,140.225,81.989,140.225"/>
<path fill="none" stroke="#FF3366" stroke-width="0.801" stroke-linejoin="round" stroke-miterlimit="10" d="M74.862,143.42
	c-0.285,1.963,5.418,3.381,4.731,0.334v-0.167"/>
<path fill="none" stroke="#000000" stroke-width="0.624" stroke-linejoin="round" stroke-miterlimit="10" d="M78.163,136.113
	c0.118-1.56-0.458-3.331,0.254-4.774l0.601-1.43l0.78,1.312l-0.601,0.118 M76.417,136.113c-0.118-1.56,0.452-3.331-0.26-4.774
	l-0.601-1.43l-0.78,1.312l0.601,0.118"/>
<path fill="#FF3366" d="M63.785,151.513c-1.647-1.356-1.703-4.012-0.124-5.944c1.585-1.926,4.205-2.39,5.858-1.034
	c1.647,1.356,1.703,4.012,0.117,5.938C68.057,152.405,65.438,152.869,63.785,151.513"/>
<path fill="none" stroke="#000000" stroke-width="0.534" stroke-linejoin="round" stroke-miterlimit="10" d="M78.082,147.692v1.858
	l1.016,1.684 M75.822,147.692v1.851l1.015,1.685"/>
<path fill="#0000FF" d="M65.717,149.314c-0.743-0.607-0.625-1.981,0.266-3.065c0.892-1.09,2.211-1.474,2.96-0.861
	c0.737,0.607,0.619,1.982-0.266,3.072C67.785,149.543,66.459,149.928,65.717,149.314"/>
<path fill="#FF3366" d="M90.751,151.519c-1.653,1.356-4.272,0.892-5.858-1.04c-1.579-1.926-1.523-4.588,0.124-5.938
	c1.654-1.356,4.273-0.892,5.858,1.034C92.454,147.507,92.398,150.163,90.751,151.519"/>
<path fill="#0000FF" d="M88.596,149.488c-0.743,0.607-2.068,0.223-2.954-0.854c-0.891-1.084-1.009-2.459-0.26-3.066
	c0.737-0.613,2.062-0.229,2.954,0.855C89.221,147.5,89.339,148.875,88.596,149.488"/>
<path fill="#0000FF" d="M97.302,129.965c-0.378,0.26-1.195-0.266-1.833-1.183c-0.644-0.91-0.854-1.863-0.483-2.124
	c0.372-0.26,1.195,0.267,1.833,1.183C97.457,128.75,97.674,129.705,97.302,129.965"/>
<linearGradient id="path9733_1_" gradientUnits="userSpaceOnUse" x1="262.9873" y1="600.2178" x2="285.708" y2="600.2178" gradientTransform="matrix(0.8165 1.8732 1.8732 -0.8165 -1316.5947 115.1145)">
	<stop  offset="0" style="stop-color:#0073A1"/>
	<stop  offset="1" style="stop-color:#003555"/>
</linearGradient>
<path id="path9733" fill="url(#path9733_1_)" d="M32.211,115.713c-3.327-0.058-6.627,0.601-9.678,1.93
	c-11.752,5.123-17.127,18.803-12.004,30.555c4.334,9.877,14.9,15.467,25.504,13.492c0.453-1.439,0.822-3.021,0.822-4.743
	c0-0.245-0.006-0.49-0.02-0.741c0,0,0.829-1.414,1.482-3.258c0.809-2.279,0.381-4.788-1.021-6.774
	c-0.082-0.108-0.163-0.231-0.251-0.354c-8.25,0-12.331-7.48-13.365-12.031c-0.428-1.87-0.776-2.056-1.944-2.056
	c-2.161,0-3.72-0.896-3.72-0.896c-1.983,0.909-2.872,0.538-2.605-0.411c-0.864-0.095-0.846-1.075-0.32-1.977
	c0.659-1.129,2.006-1.897,3.618-1.897h0.864c1.782,0,2.149-0.932,3.985-0.735c0.286,0.027,0.551,0.075,0.796,0.136
	c0.51-0.585,1.088-0.83,1.789-0.782c0.108,0.014,0.177,0.109,0.156,0.211l-0.17,0.789c-0.061,0.292,0.02,0.599,0.231,0.796
	c1.483,1.388,2.333,3.754,3.285,5.89c1.544,3.149,5.271,7.522,11.25,1.911c4.203-3.945,6.742-7.234,10.916-7.558
	C47.729,120.224,40.303,115.867,32.211,115.713z M22.355,127.134c-0.612,0-1.223,0.491-1.015,0.579
	c0.046,0.02,0.125,0.033,0.215,0.043c0.064,0.392,0.394,0.694,0.804,0.694s0.733-0.303,0.797-0.694
	c0.09-0.01,0.168-0.023,0.215-0.043C23.578,127.625,22.967,127.134,22.355,127.134z M44.04,149.452
	c-0.497,0.012-0.942,0.328-1.091,0.81v0.007c-0.742,2.381-2.184,5.455-2.184,5.455s-1.435,2.539-2.246,5.385
	c0.872-0.25,1.728-0.554,2.563-0.905c1.637-0.716,3.185-1.618,4.613-2.688c-0.223-0.443-0.474-0.896-0.772-1.363
	c0,0-0.476-2.115-1.387-4.421c0.142-0.394,0.271-0.782,0.388-1.155l0.006-0.027c0.027-0.055,0.089-0.075,0.156-0.075h0.008
	c0.477,0.075,0.979,0.149,1.564,0.218c0.176,0.014,0.359,0.026,0.543,0.047c0.225,0.021,0.443,0.041,0.667,0.055
	c0.054,2.14,0.982,4.186,1.218,4.673c1.713-1.687,3.152-3.628,4.27-5.755c-1.654,0.188-3.676,0.252-6.055,0.015
	c-0.19-0.021-0.381-0.042-0.57-0.055c-0.524-0.062-1.014-0.129-1.477-0.204C44.183,149.454,44.11,149.45,44.04,149.452
	L44.04,149.452z"/>
</svg>
