<?xml version="1.0" encoding="UTF-8"?>
<svg width="2001px" height="586px" viewBox="0 0 2001 586" version="1.1" xmlns="http://www.w3.org/2000/svg" xmlns:xlink="http://www.w3.org/1999/xlink">
    <title>Stand Alone</title>
    <g id="Stand-Alone" stroke="none" stroke-width="1" fill="none" fill-rule="evenodd">
        <g id="PayProp-SVG">
            <rect id="Rectangle" fill="#FFFFFF" fill-rule="nonzero" x="45" y="43" width="496" height="496"></rect>
            <g id="Group">
                <path d="M256.528119,329.498968 L329.937109,329.498968 L329.937109,402.900206 L403.3461,402.900206 L403.3461,183.099794 L183.119129,183.099794 L183.119129,476.301445 L109.710139,476.301445 L109.710139,109.698555 L475.948398,109.698555 L475.948398,475.898142 L256.528119,475.898142 L256.528119,329.498968 Z M0,586 L586.061883,586 L586.061883,0 L0,0 L0,586 Z" id="Fill-1" fill="#EE3124"></path>
                <path d="M754.257206,171.807295 L778.861318,171.807295 C808.70893,171.807295 820.00262,188.342739 820.00262,216.977288 C820.00262,247.225052 803.868776,260.937371 780.474703,260.937371 L754.257206,260.937371 L754.257206,171.807295 Z M694.96533,422.258775 L754.257206,422.258775 L754.257206,304.897454 L786.121548,304.897454 C842.186656,304.897454 879.697843,277.472815 879.697843,216.170681 C879.697843,172.210599 859.127192,127.847213 799.028623,127.847213 L695.368676,127.847213 L695.368676,422.258775 L694.96533,422.258775 Z" id="Fill-3" fill="#1D1C1C"></path>
                <path d="M1008.7686,354.907089 C1008.7686,379.105299 989.004636,389.187887 973.677484,389.187887 C958.350333,389.187887 952.300141,375.072264 952.300141,358.133517 C952.300141,338.371645 961.173755,327.079147 984.567829,322.239504 C991.424713,320.62629 1001.10502,316.996559 1008.7686,310.947006 L1008.7686,354.907089 Z M955.930256,268.196834 L955.930256,262.147281 C955.930256,245.208534 965.207216,233.512732 982.147752,233.512732 C1001.10502,233.512732 1008.36525,243.59532 1008.36525,260.534067 C1008.36525,275.456297 1002.7184,281.909153 985.777867,286.345492 L953.510179,295.218169 C914.385608,306.107364 897.445072,323.046111 897.445072,364.586373 C897.445072,394.430833 911.562185,427.905024 951.090103,427.905024 C978.114291,427.905024 994.248135,422.258775 1007.55856,399.270475 L1008.36525,399.270475 C1009.97863,406.529938 1011.59202,415.402615 1015.22213,422.258775 L1069.67386,422.258775 C1064.02701,409.353063 1062.81697,400.077082 1062.81697,379.508603 L1062.81697,262.550585 C1062.81697,223.026841 1049.9099,194.795595 982.551099,194.795595 C939.796412,194.795595 904.705301,212.137646 904.705301,262.953889 L904.705301,268.196834 L955.930256,268.196834 L955.930256,268.196834 Z" id="Fill-4" fill="#1D1C1C"></path>
                <path d="M1101.94154,494.450103 L1124.93227,494.450103 C1177.77061,494.450103 1190.27434,483.560908 1210.0383,407.336545 L1263.68333,200.441844 L1206.81153,200.441844 L1177.77061,353.697178 L1176.96392,353.697178 L1143.88954,200.441844 L1084.59766,200.441844 L1146.71296,421.855471 C1145.09958,441.617343 1137.03265,453.313145 1116.05866,453.313145 C1111.2185,453.313145 1106.37835,452.909842 1101.13485,452.103235 L1101.13485,494.450103" id="Fill-5" fill="#1D1C1C"></path>
                <path d="M1344.35255,171.807295 L1368.95666,171.807295 C1398.80427,171.807295 1410.09796,188.342739 1410.09796,216.977288 C1410.09796,247.225052 1393.96412,260.937371 1370.57005,260.937371 L1344.35255,260.937371 L1344.35255,171.807295 Z M1285.06067,422.258775 L1344.35255,422.258775 L1344.35255,304.897454 L1376.21689,304.897454 C1432.282,304.897454 1469.79319,277.472815 1469.79319,216.170681 C1469.79319,172.210599 1449.22254,127.847213 1389.12397,127.847213 L1285.46402,127.847213 L1285.46402,422.258775 L1285.06067,422.258775 Z" id="Fill-6" fill="#1D1C1C"></path>
                <path d="M1495.60734,422.258775 L1552.47914,422.258775 L1552.47914,289.168617 C1552.47914,259.324157 1574.66317,249.241569 1594.42713,249.241569 C1600.07398,249.241569 1606.52751,249.644873 1612.17436,250.048176 L1612.17436,195.602202 C1608.94759,195.198899 1605.31748,194.795595 1601.68736,194.795595 C1578.29329,194.795595 1562.15944,208.911218 1550.46241,230.286304 L1549.65571,230.286304 L1549.65571,200.441844 L1495.20399,200.441844 L1495.20399,422.258775" id="Fill-7" fill="#1D1C1C"></path>
                <path d="M1680.7432,311.35031 C1680.7432,266.180317 1683.16327,233.512732 1711.3975,233.512732 C1734.38823,233.512732 1742.0518,256.097729 1742.0518,311.35031 C1742.0518,366.602891 1734.79157,389.187887 1711.3975,389.187887 C1683.16327,389.187887 1680.7432,356.520303 1680.7432,311.35031 M1623.8714,311.35031 C1623.8714,388.38128 1642.82866,429.114935 1710.99415,427.905024 C1775.93288,427.905024 1798.52026,387.17137 1798.52026,311.35031 C1798.52026,234.319339 1779.56299,193.585685 1710.99415,194.795595 C1646.05543,194.795595 1623.8714,235.52925 1623.8714,311.35031" id="Fill-8" fill="#1D1C1C"></path>
                <path d="M1827.56118,494.450103 L1884.43298,494.450103 L1884.43298,401.286992 L1885.23967,401.286992 C1897.34005,419.032347 1911.45717,427.501721 1932.83451,427.501721 C1979.21931,427.501721 2001,393.220922 2001,310.947006 C2001,228.67309 1979.62266,194.392292 1932.83451,194.392292 C1910.65047,194.392292 1894.91998,202.861666 1882.41625,223.430145 L1881.60955,223.430145 L1881.60955,200.038541 L1827.15783,200.038541 L1827.15783,494.450103 L1827.56118,494.450103 Z M1884.43298,311.35031 C1884.43298,262.953889 1889.27313,238.352374 1914.68393,238.352374 C1939.28805,238.352374 1944.1282,262.953889 1944.1282,311.35031 C1944.1282,359.343427 1939.28805,384.348245 1914.68393,384.348245 C1889.27313,384.348245 1884.43298,359.343427 1884.43298,311.35031 Z" id="Fill-9" fill="#1D1C1C"></path>
            </g>
        </g>
    </g>
</svg>